<svg xmlns="http://www.w3.org/2000/svg" xmlns:xlink="http://www.w3.org/1999/xlink" version="1.1">
  <defs>
  <symbol id="menu-hamburger" viewBox="0 0 25 11">
    <path d="M1.5,3h22C24.3,3,25,2.3,25,1.5S24.3,0,23.5,0h-22C0.7,0,0,0.7,0,1.5S0.7,3,1.5,3z" />
    <path d="M23.5,8h-22C0.7,8,0,8.7,0,9.5S0.7,11,1.5,11h22c0.8,0,1.5-0.7,1.5-1.5S24.3,8,23.5,8z" />
  </symbol>
  <symbol id="menu-phone" viewBox="0 0 36 36">
    <path class="st0" d="M18,0C11.6,0,5.2,1.1,2.8,3.4C0.9,5.3,0.2,8.7,0,10.8c0,0,0,0.2,0,0.3c0,0.8,0.7,1.5,1.5,1.5
      c0.1,0,3.7-0.3,5.9-0.5c0.1,0,0.1,0,0.2,0c0.8,0,1.5-0.7,1.5-1.5l0-3C9,6.7,9.7,6,10.7,6h14.7C26.2,6,27,6.7,27,7.7l0,3
      c0,0.8,0.7,1.5,1.5,1.5c0.1,0,0.1,0,0.2,0c2.2,0.2,5.8,0.5,5.9,0.5c0.8,0,1.5-0.7,1.5-1.5c0-0.1,0-0.3,0-0.3
      c-0.2-2.1-0.9-5.5-2.8-7.4C30.8,1.1,24.4,0,18,0z M18,19.5c-1.7,0-3,1.3-3,3s1.3,3,3,3c1.7,0,3-1.3,3-3S19.7,19.5,18,19.5z
      M15.7,12.7v-1.9c0-1-0.8-1.9-1.9-1.9S12,9.8,12,10.9v1.9L1.9,23.6c-0.7,0.7-1.1,1.6-1.1,2.7v3c0,1.7,1.3,3,3,3h0.8v1.9
      c0,1,0.8,1.9,1.9,1.9s1.9-0.8,1.9-1.9v-1.9h19.5v1.9c0,1,0.8,1.9,1.9,1.9c1,0,1.9-0.8,1.9-1.9v-1.9h0.8c1.7,0,3-1.3,3-3v-3
      c0-1.1-0.4-2-1.1-2.7L24,12.7v-1.9c0-1-0.8-1.9-1.9-1.9s-1.9,0.8-1.9,1.9v1.9H15.7z M18,16.5c3.3,0,6,2.7,6,6c0,3.3-2.7,6-6,6
      c-3.3,0-6-2.7-6-6C12,19.2,14.7,16.5,18,16.5z" />
  </symbol>
  <symbol id="menu-mail" viewBox="0 0 36 26">
    <path class="st0" d="M0,23c0,1.6,1.3,3,3,3h30c1.7,0,3-1.3,3-3V3c0-1.6-1.3-3-3-3H3C1.3,0,0,1.3,0,3L0,23L0,23z M11,13L4.2,6.2
      c-0.6-0.6-0.6-1.5,0-2c0.6-0.6,1.5-0.6,2.1,0l11,10.9c0.4,0.4,1.2,0.4,1.6,0l11-10.9c0.6-0.6,1.5-0.6,2.1,0c0.6,0.6,0.6,1.5,0,2
      L25,13l6.9,6.8c0.6,0.6,0.6,1.5,0,2c-0.6,0.6-1.5,0.6-2.1,0l-6.9-6.8c0,0-2.1,2.2-2.5,2.5c-0.6,0.6-1.4,1-2.4,1
      c-0.9,0-1.8-0.4-2.4-1c-0.4-0.4-2.5-2.5-2.5-2.5l-6.9,6.8c-0.6,0.6-1.5,0.6-2.1,0c-0.6-0.6-0.6-1.5,0-2L11,13z" />
  </symbol>
  <symbol id="facebook" viewBox="0 0 11 21">
    <path d="M7.8,21H2.2v-9.8H0V6.4h2.1C2,4.2,2.4,2.6,3.4,1.5C4.2,0.6,5.5,0.1,7.1,0L11,0v4.7H7.9C7.8,4.9,7.7,5.5,7.7,6.4H11v4.8H7.8
      V21z M3.4,19.9h3.1v-9.8h3.2V7.5H6.5l0-0.6c0-1.5,0-2.9,0.8-3.4l0.2-0.1h2.3V1.1H7.1C5.9,1.2,4.9,1.6,4.3,2.3
      C3.5,3.2,3.2,4.8,3.4,6.9l0.1,0.6H1.2v2.6h2.2V19.9z" />
  </symbol>
  <symbol id="vk" viewBox="0 0 30 15.8">
    <path d="M23.9,15.8c-0.4,0-1.2-0.1-2.1-0.6c-0.6-0.4-1.2-1-1.8-1.5c-0.4-0.4-1.2-1.2-1.4-1.2c-0.3,0.1-0.5,0.9-0.5,1.6
      c0,0.1,0,0.8-0.5,1.2c-0.4,0.4-1.1,0.5-1.2,0.5l-1.9,0c-1,0-4.4-0.2-7.4-3c-3.7-3.4-6.8-9.8-7-10.1C0,2.2-0.1,1.5,0.3,1.1
      c0.4-0.4,1.1-0.5,1.4-0.5l4.1,0l0.1,0c0.1,0,0.6,0.1,1,0.3c0.4,0.2,0.6,0.7,0.6,0.7c0,0,0.6,1.4,1.5,2.7c1.3,2,1.9,2.5,2.1,2.6
      c0.2-0.4,0.3-1.7,0.2-2.9c0-0.5-0.1-1.1-0.3-1.3c-0.1-0.1-0.4-0.3-0.8-0.3L9.5,1.8c-0.1-0.7,0.6-1.2,1.1-1.4
      C11.3,0.1,12.4,0,13.7,0l0.7,0c1.2,0,1.6,0.1,2.1,0.2c1.7,0.4,1.6,1.7,1.6,3.3c0,0.5,0,1,0,1.6c0,0.2,0,0.3,0,0.5
      c0,0.4,0,1,0.1,1.3c0.2-0.1,0.9-0.7,2.1-2.5c0.8-1.2,1.4-2.5,1.5-2.8l0,0c0.2-0.4,0.6-0.9,1.6-0.9l4.3,0c0,0,0.2,0,0.4,0
      c1,0,1.6,0.3,1.8,0.9c0.3,0.6,0.2,1.7-2.4,4.6c-0.4,0.4-0.7,0.8-1,1.1c-0.6,0.7-1.2,1.4-1.2,1.6C25.4,9,26,9.5,26.6,10
      c1.5,1.2,2.5,2.3,3,3.1c0.5,0.8,0.4,1.3,0.3,1.7c-0.4,0.9-1.6,1-1.9,1l-3.8,0C24.1,15.8,24.1,15.8,23.9,15.8z M18.6,10.9
      c0.9,0,1.7,0.8,2.5,1.6c0.5,0.5,1,1,1.5,1.3c0.7,0.4,1.3,0.4,1.4,0.4l0.1,0l3.8,0c0.2,0,0.4-0.1,0.5-0.1c0,0,0-0.1-0.1-0.2
      c-0.4-0.7-1.4-1.7-2.7-2.7c-1.2-1-1.8-1.5-1.9-2.2c-0.1-0.8,0.5-1.4,1.6-2.7c0.3-0.3,0.6-0.7,1-1.1c1.6-1.8,2-2.6,2.1-3
      c-0.2,0-0.6,0-0.7,0l-4.4,0c-0.2,0-0.2,0-0.2,0c-0.2,0.4-0.8,1.8-1.6,3c-1.9,2.8-2.8,3.2-3.4,3.2c-0.2,0-0.4,0-0.6-0.1
      c-1-0.6-1-1.8-0.9-2.8c0-0.1,0-0.3,0-0.4c0-0.6,0-1.2,0-1.7c0.1-1.7,0-1.7-0.4-1.8c-0.4-0.1-0.7-0.1-1.9-0.2l-0.7,0
      c-0.6,0-1.3,0-1.9,0.1c0.1,0.1,0.2,0.2,0.3,0.3c0.6,0.7,0.6,2,0.6,2.2c0.1,1.6,0.1,3.8-1,4.3c-0.2,0.1-0.4,0.1-0.6,0.1
      c-0.9,0-1.9-0.9-3.4-3.3C6.8,3.9,6.1,2.4,6.1,2.3c0,0-0.1-0.1-0.1-0.1C5.9,2.2,5.8,2.1,5.7,2.1l-4,0c0,0,0,0-0.1,0
      C2.2,3.3,5,8.7,8.1,11.6c2.7,2.5,5.8,2.6,6.4,2.6l1.9,0c0,0,0.2-0.1,0.3-0.1c0,0,0-0.1,0-0.1c0-0.3,0-2.6,1.6-3
      C18.4,10.9,18.5,10.9,18.6,10.9z" />
  </symbol>
  <symbol id="instagram" viewBox="0 0 23 23">
    <path class="st0" d="M17,1.5c2.5,0,4.5,2,4.5,4.5v11c0,2.5-2,4.5-4.5,4.5H6c-2.5,0-4.5-2-4.5-4.5V6c0-2.5,2-4.5,4.5-4.5L17,1.5
      M17,0H6C2.7,0,0,2.7,0,6v11c0,3.3,2.7,6,6,6h11c3.3,0,6-2.7,6-6V6C23,2.7,20.3,0,17,0L17,0z" />
    <path class="st0" d="M11.5,7.1c2.4,0,4.4,2,4.4,4.4c0,2.4-2,4.4-4.4,4.4c-2.4,0-4.4-2-4.4-4.4C7.1,9.1,9.1,7.1,11.5,7.1 M11.5,5.6
      c-3.3,0-5.9,2.7-5.9,5.9s2.7,5.9,5.9,5.9s5.9-2.7,5.9-5.9S14.8,5.6,11.5,5.6L11.5,5.6z" />
    <circle class="st0" cx="17.6" cy="5.4" r="1.3" />
  </symbol>
  <symbol id="top-menu-phone" viewBox="0 0 18 18">
    <path class="st0" d="M12.6,18c-0.3,0-0.5,0-0.8,0c-3.6-0.4-6.2-2.1-8.1-4.3C1.8,11.6,0.3,8.8,0,5c0-0.3,0-0.7,0-1
      c0.1-0.7,0.4-1.1,0.8-1.5C1.2,2,2,1.4,2.6,1.3c0.5,0,1.3,0.3,1.6,0.8c0.3,0.4,0.4,1.2,0.6,1.8c0.1,0.6,0.4,1.4,0.4,2
      C5,6.8,3.9,7.2,3.5,7.8c1.1,2.8,3,4.8,5.4,6.2c0.6-0.3,1.2-1.4,2-1.4c0.3,0,0.7,0.2,1,0.3c0.3,0.1,0.6,0.2,1,0.4
      c0.5,0.2,1.4,0.5,1.7,0.9c0.3,0.4,0.5,1.2,0.4,1.7C14.9,16.7,13.4,17.7,12.6,18z" />
    <path class="st0" d="M9.1,1.1c4.3,0,7.8,3.6,7.8,8H18c0-5-4-9.1-8.9-9.1L9.1,1.1z" />
    <path class="st0" d="M9.1,6.9V8c0.6,0,1,0.5,1,1.1h1.1C11.2,7.9,10.3,6.9,9.1,6.9z" />
    <path class="st0" d="M9.1,4.6c2.4,0,4.4,2,4.4,4.5h1.2c0-3.1-2.5-5.7-5.5-5.7V4.6L9.1,4.6z" />
  </symbol>
  <symbol id="top-menu-mail" viewBox="0 0 18 14">
    <path class="st0"
      d="M14.9,1.8c1.2-1,0.9-1.8-0.7-1.8H3.7C2.2,0,1.9,0.8,3.1,1.8l3.7,3.1c1.2,1,3.2,1,4.4,0L14.9,1.8z" />
    <path class="st0" d="M11.9,7.1c-1.2,1-2.2,1.8-2.2,1.8c0,0,0,0,0,0C9.6,9,9.5,9,9.4,9c0,0-0.1,0-0.1,0C9.2,9.1,9.1,9.1,9,9.1
      c0,0,0,0,0,0c0,0,0,0,0,0l0,0c0,0,0,0,0,0c-0.1,0-0.2,0-0.3-0.1c0,0-0.1,0-0.1,0C8.5,9,8.4,9,8.3,8.9c0,0,0,0,0,0
      c0,0-1-0.8-2.2-1.8L2.2,3.8C1,2.8,0,3.3,0,4.8v6.3C0,12.7,1.3,14,2.8,14h12.3c1.6,0,2.8-1.3,2.8-2.8V4.8c0-1.6-1-2-2.2-1
      L11.9,7.1z" />
  </symbol>
  <symbol id="triangle-arrow-right" viewBox="0 0 10 14">
    <polygon points="0,14 0,0.1 10,7.1 " />
  </symbol>
  <symbol id="contacts-location" viewBox="0 0 28 43">
    <path class="st0" d="M11.7,13.9c0-1.2,1-2.2,2.3-2.2s2.3,1,2.3,2.2c0,1.2-1,2.2-2.3,2.2C12.8,16.1,11.7,15.1,11.7,13.9z M14,8.1
      c-3.2,0-5.9,2.6-5.9,5.8s2.6,5.8,5.9,5.8c3.2,0,5.9-2.6,5.9-5.8C19.9,10.7,17.2,8.1,14,8.1z M0,13.6c0,9.1,10.9,16.2,11.7,26.7v0.4
      c0,1.2,1,2.2,2.3,2.2s2.3-1,2.3-2.2v-0.4C17.2,29.8,28,22.8,28,13.6C28,6.1,21.7,0,14,0C6.3,0,0,6.1,0,13.6z M14,4.5
      c5.2,0,9.5,4.2,9.5,9.4c0,5.2-4.2,9.4-9.5,9.4s-9.5-4.2-9.5-9.4C4.5,8.7,8.8,4.5,14,4.5z" />
  </symbol>
  <symbol id="plane" viewBox="0 0 19 21">
    <path d="M18.9,18.9c-0.1-0.3-3.7-10.1-3.7-10.1c0,0,0,0,0,0c-0.1-0.5,0.1-0.7,0.3-1.1c0,0,2.1-3.5,2.8-4.6c0.7-1.2,0.6-2.3-0.1-2.8
      c-0.7-0.5-1.7-0.1-2.5,1c-0.8,1.1-3,4.5-3,4.5c-0.3,0.4-0.4,0.7-0.9,0.8c0,0,0,0,0,0C11.7,6.5,1.5,7,1.2,7c-0.3,0-0.7,0.1-1,0.6
      C-0.2,8.3,0,8.5,0.4,8.6c0,0,8,2.6,8.3,2.7C9,11.3,9,11.5,8.9,11.9c-0.2,0.4-1.4,2.3-1.6,2.6c-0.1,0.2-0.2,0.2-0.4,0.3l-2.8,1
      c-0.1,0-0.3,0.1-0.4,0.3c0,0-0.2,0.3-0.4,0.6c-0.2,0.3-0.1,0.5,0.2,0.5c0.3,0.1,2.1,0.2,2.1,0.2c0,0,0.3,0.1,0.4,0.1
      c0.2,0.1,0.4,0.3,0.2,0.6c-0.3,0.6-0.4,1.2-0.2,1.3s0.6-0.2,1-0.7c0.2-0.3,0.4-0.2,0.6,0C7.8,18.6,8,18.8,8,18.8c0,0,0.8,1.6,1,1.9
      c0.2,0.3,0.4,0.3,0.6,0c0.2-0.3,0.4-0.6,0.4-0.6c0.1-0.1,0.1-0.3,0.1-0.5l-0.3-3.1c0-0.2,0-0.2,0.1-0.5c0.1-0.2,1.4-2.2,1.6-2.5
      c0.2-0.3,0.4-0.3,0.6-0.1c0.2,0.2,5.7,6.7,5.7,6.7c0.3,0.3,0.5,0.4,0.9-0.2C19.1,19.5,19,19.1,18.9,18.9z" />
  </symbol>
  <symbol id="bus" viewBox="0 0 17 21">
    <path
      d="M16.2,3.1c-0.2-1.2-1-1.6-2.1-2.1C13,0.6,10.4,0,8.5,0C6.6,0,4,0.6,2.9,1C1.8,1.5,1.1,1.9,0.8,3.1L0,9.5v8.8h1.4v1.4
      c0,1.7,2.5,1.7,2.5,0v-1.4h4.5h0h4.7v1.4c0,1.7,2.5,1.7,2.5,0v-1.4H17V9.5L16.2,3.1z M5,1.6h3.4H12c0.7,0,0.7,1,0,1H8.4H5
      C4.3,2.7,4.3,1.6,5,1.6z M2.7,15.6c-0.6,0-1.2-0.5-1.2-1.2c0-0.7,0.5-1.2,1.2-1.2c0.6,0,1.2,0.5,1.2,1.2C3.8,15,3.3,15.6,2.7,15.6z
      M8.4,10.2H2.2c-0.6,0-0.7-0.4-0.7-0.9l0.6-4.7c0.1-0.6,0.3-0.9,1-0.9h5.3h5.4c0.7,0,0.9,0.4,1,0.9l0.6,4.7c0.1,0.4-0.1,0.9-0.7,0.9
      H8.4z M14.3,15.6c-0.6,0-1.2-0.5-1.2-1.2c0-0.7,0.5-1.2,1.2-1.2c0.6,0,1.2,0.5,1.2,1.2C15.5,15,15,15.6,14.3,15.6z" />
  </symbol>
  <symbol id="bike" viewBox="0 0 24 21">
    <path d="M16,3.6c1,0,1.8-0.8,1.8-1.8S17,0,16,0s-1.8,0.8-1.8,1.8S15,3.6,16,3.6z M19,11c-2.8,0-5,2.3-5,5s2.2,5,5,5s5-2.3,5-5
      S21.8,11,19,11z M19,19.6c-1.9,0-3.5-1.6-3.5-3.5s1.6-3.5,3.5-3.5s3.5,1.6,3.5,3.5S20.9,19.6,19,19.6z M14.8,8.9H19V7.1h-3.2
      l-1.9-3.3C13.6,3.3,13.1,3,12.4,3c-0.5,0-0.9,0.2-1.2,0.5L7.5,7.2C7.2,7.5,7,7.9,7,8.4C7,9,7.3,9.6,7.8,9.9l3.3,2v5H13v-6.5
      l-2.2-1.7l2.3-2.4L14.8,8.9z M5,11c-2.8,0-5,2.3-5,5s2.2,5,5,5s5-2.3,5-5S7.8,11,5,11z M5,19.6c-1.9,0-3.5-1.6-3.5-3.5
      s1.6-3.5,3.5-3.5s3.5,1.5,3.5,3.5S6.9,19.6,5,19.6z" />
  </symbol>
  <symbol id="run" viewBox="0 0 20 21">
    <ellipse cx="14.3" cy="2" rx="2.1" ry="2" />
    <path d="M19.4,4.6c-0.5-0.2-1.2-0.1-1.4,0.4l-0.9,1.6L13,4.3c-0.2-0.1-0.3-0.1-0.6-0.1H7.9C7.5,4.2,7.2,4.3,7,4.7L5.3,7.6
      C5,8.1,5.2,8.7,5.7,8.9C5.9,9,6.1,9,6.2,9C6.6,9,7,8.8,7.2,8.5l1.4-2.4h1.6l-4.7,8.1H1.1c-0.6,0-1.1,0.4-1.1,1s0.5,1,1.1,1h5
      c0.4,0,0.7-0.2,0.9-0.5l1.9-3.2l3,2.6L11.7,20c-0.1,0.5,0.4,1,1,1c0,0,0,0,0.1,0c0.6,0,1-0.4,1.1-0.9l0.3-5.4
      c0-0.3-0.1-0.6-0.3-0.8l-2.6-2.2l2.7-4.6l3.1,1.8C17.1,9,17.5,9.1,17.7,9c0.3-0.1,0.5-0.2,0.7-0.5L19.9,6C20.2,5.5,20,4.9,19.4,4.6
      z" />
  </symbol>
  </defs>
</svg>
